<svg width="62" height="32" viewBox="0 0 62 32" fill="none" xmlns="http://www.w3.org/2000/svg">
<path d="M7.24092 0.18868C7.24092 0.136269 7.25862 0.0943398 7.29404 0.062893C7.34125 0.0209642 7.39437 0 7.45339 0H9.50726C9.56628 0 9.6135 0.0209642 9.64891 0.062893C9.69612 0.0943398 9.71973 0.136269 9.71973 0.18868V10.8176C9.71973 10.87 9.69612 10.9172 9.64891 10.9591C9.6135 10.9906 9.56628 11.0063 9.50726 11.0063H7.1701C7.05206 11.0063 6.97533 10.9539 6.93992 10.8491L4.7444 4.76415C4.7326 4.7327 4.70899 4.72222 4.67358 4.7327C4.64997 4.7327 4.63817 4.74843 4.63817 4.77987L4.65587 10.8176C4.65587 10.87 4.63226 10.9172 4.58505 10.9591C4.54964 10.9906 4.50242 11.0063 4.4434 11.0063H2.38953C2.33051 11.0063 2.27739 10.9906 2.23018 10.9591C2.19476 10.9172 2.17706 10.87 2.17706 10.8176V0.18868C2.17706 0.136269 2.19476 0.0943398 2.23018 0.062893C2.27739 0.0209642 2.33051 0 2.38953 0H4.70899C4.82703 0 4.90375 0.0524108 4.93916 0.157233L7.15239 6.24214C7.16419 6.27359 7.1819 6.28931 7.20551 6.28931C7.24092 6.27883 7.25863 6.25786 7.25863 6.22642L7.24092 0.18868Z" fill="black"/>
<path d="M11.4845 11.0063C11.4255 11.0063 11.3724 10.9906 11.3251 10.9591C11.2897 10.9172 11.272 10.87 11.272 10.8176V0.18868C11.272 0.136269 11.2897 0.0943398 11.3251 0.062893C11.3724 0.0209642 11.4255 0 11.4845 0H13.5561C13.6151 0 13.6623 0.0209642 13.6977 0.062893C13.7449 0.0943398 13.7686 0.136269 13.7686 0.18868V10.8176C13.7686 10.87 13.7449 10.9172 13.6977 10.9591C13.6623 10.9906 13.6151 11.0063 13.5561 11.0063H11.4845Z" fill="black"/>
<path d="M15.5651 11.0063C15.5061 11.0063 15.453 10.9906 15.4058 10.9591C15.3704 10.9172 15.3527 10.87 15.3527 10.8176V0.18868C15.3527 0.136269 15.3704 0.0943398 15.4058 0.062893C15.453 0.0209642 15.5061 0 15.5651 0H17.6367C17.6957 0 17.743 0.0209642 17.7784 0.062893C17.8256 0.0943398 17.8492 0.136269 17.8492 0.18868V4.15094C17.8492 4.19287 17.861 4.21908 17.8846 4.22956C17.92 4.22956 17.9436 4.2086 17.9554 4.16667L20.2395 0.14151C20.2985 0.04717 20.3811 0 20.4874 0H22.6829C22.7655 0 22.8186 0.0209642 22.8422 0.062893C22.8776 0.0943398 22.8776 0.146751 22.8422 0.220126L20.2218 4.74843C20.21 4.79036 20.2041 4.8218 20.2041 4.84277L22.9839 10.7862C22.9957 10.8071 23.0016 10.8386 23.0016 10.8805C23.0016 10.9644 22.9426 11.0063 22.8245 11.0063H20.6113C20.4814 11.0063 20.3988 10.9591 20.3634 10.8648L18.522 6.74528C18.5102 6.71384 18.4925 6.70335 18.4689 6.71384C18.4453 6.71384 18.4217 6.72432 18.3981 6.74528L17.8846 7.56289C17.861 7.60482 17.8492 7.63627 17.8492 7.65723V10.8176C17.8492 10.87 17.8256 10.9172 17.7784 10.9591C17.743 10.9906 17.6957 11.0063 17.6367 11.0063H15.5651Z" fill="black"/>
<path d="M30.548 1.71384C30.548 1.76625 30.5244 1.81342 30.4772 1.85535C30.4417 1.88679 30.3945 1.90252 30.3355 1.90252H26.635C26.576 1.90252 26.5465 1.92872 26.5465 1.98113V4.46541C26.5465 4.51782 26.576 4.54403 26.635 4.54403H28.7597C28.8187 4.54403 28.8659 4.56499 28.9013 4.60692C28.9486 4.63837 28.9722 4.68029 28.9722 4.7327V6.25786C28.9722 6.31027 28.9486 6.35744 28.9013 6.39937C28.8659 6.43082 28.8187 6.44654 28.7597 6.44654H26.635C26.576 6.44654 26.5465 6.47275 26.5465 6.52516V9.02516C26.5465 9.07757 26.576 9.10377 26.635 9.10377H30.3355C30.3945 9.10377 30.4417 9.12474 30.4772 9.16667C30.5244 9.19811 30.548 9.24004 30.548 9.29245V10.8176C30.548 10.87 30.5244 10.9172 30.4772 10.9591C30.4417 10.9906 30.3945 11.0063 30.3355 11.0063H24.2624C24.2034 11.0063 24.1503 10.9906 24.1031 10.9591C24.0677 10.9172 24.05 10.87 24.05 10.8176V0.18868C24.05 0.136269 24.0677 0.0943398 24.1031 0.062893C24.1503 0.0209642 24.2034 0 24.2624 0H30.3355C30.3945 0 30.4417 0.0209642 30.4772 0.062893C30.5244 0.0943398 30.548 0.136269 30.548 0.18868V1.71384Z" fill="black"/>
<path d="M40.5637 11.0063C40.422 11.0063 40.3453 10.9486 40.3335 10.8333L40.0502 9.3239C40.0502 9.27149 40.0148 9.24528 39.944 9.24528H37.6953C37.6245 9.24528 37.5891 9.27149 37.5891 9.3239L37.3058 10.8333C37.294 10.9486 37.2173 11.0063 37.0756 11.0063H35.004C34.8506 11.0063 34.7916 10.9382 34.827 10.8019L37.4297 0.172957C37.4533 0.0576522 37.5301 0 37.6599 0H40.0502C40.18 0 40.2568 0.0576522 40.2804 0.172957L42.8654 10.8019L42.8831 10.8648C42.8831 10.9591 42.8182 11.0063 42.6884 11.0063H40.5637ZM37.9432 7.45283C37.9432 7.50524 37.9668 7.53145 38.014 7.53145H39.6075C39.6666 7.53145 39.6902 7.50524 39.6784 7.45283L38.8462 3.16038C38.8344 3.12893 38.8167 3.11321 38.7931 3.11321C38.7695 3.11321 38.7518 3.12893 38.74 3.16038L37.9432 7.45283Z" fill="black"/>
<path d="M44.1123 11.0063C44.0533 11.0063 44.0002 10.9906 43.9529 10.9591C43.9175 10.9172 43.8998 10.87 43.8998 10.8176V0.18868C43.8998 0.136269 43.9175 0.0943398 43.9529 0.062893C44.0002 0.0209642 44.0533 0 44.1123 0H46.1839C46.2429 0 46.2901 0.0209642 46.3255 0.062893C46.3727 0.0943398 46.3963 0.136269 46.3963 0.18868V10.8176C46.3963 10.87 46.3727 10.9172 46.3255 10.9591C46.2901 10.9906 46.2429 11.0063 46.1839 11.0063H44.1123Z" fill="black"/>
<path d="M52.8673 11.0063C52.7374 11.0063 52.6548 10.9539 52.6194 10.8491L51.256 6.50943C51.2324 6.46751 51.2029 6.44654 51.1675 6.44654H50.5655C50.5065 6.44654 50.477 6.47275 50.477 6.52516V10.8176C50.477 10.87 50.4534 10.9172 50.4062 10.9591C50.3707 10.9906 50.3235 11.0063 50.2645 11.0063H48.1929C48.1339 11.0063 48.0808 10.9906 48.0336 10.9591C47.9982 10.9172 47.9805 10.87 47.9805 10.8176V0.18868C47.9805 0.136269 47.9982 0.0943398 48.0336 0.062893C48.0808 0.0209642 48.1339 0 48.1929 0H51.7695C52.4187 0 52.9971 0.141509 53.5047 0.424528C54.0122 0.697065 54.4018 1.08491 54.6733 1.58805C54.9565 2.0912 55.0982 2.66772 55.0982 3.31761C55.0982 3.93606 54.9624 4.48113 54.691 4.95283C54.4313 5.42453 54.0654 5.79141 53.5932 6.05346C53.5696 6.06394 53.5519 6.07967 53.5401 6.10063C53.5283 6.11111 53.5283 6.12683 53.5401 6.1478L55.169 10.7862L55.1867 10.8491C55.1867 10.9539 55.1218 11.0063 54.992 11.0063H52.8673ZM50.5655 1.90252C50.5065 1.90252 50.477 1.92872 50.477 1.98113V4.66981C50.477 4.72222 50.5065 4.74843 50.5655 4.74843H51.3623C51.7282 4.74843 52.0233 4.62264 52.2476 4.37107C52.4836 4.10901 52.6017 3.7631 52.6017 3.33333C52.6017 2.89308 52.4836 2.54717 52.2476 2.2956C52.0233 2.03354 51.7282 1.90252 51.3623 1.90252H50.5655Z" fill="black"/>
<path d="M5.57657 30C4.49062 30 3.62303 29.717 2.97382 29.1509C2.32461 28.5849 2 27.8302 2 26.8868V21.8553C2 20.9119 2.32461 20.1572 2.97382 19.5912C3.62303 19.0252 4.49062 18.7421 5.57657 18.7421C6.66253 18.7421 7.53011 19.0252 8.17933 19.5912C8.84034 20.1572 9.17085 20.9119 9.17085 21.8553V26.8868C9.17085 27.8302 8.84034 28.5849 8.17933 29.1509C7.53011 29.717 6.66253 30 5.57657 30ZM5.57657 28.0975C5.90708 28.0975 6.17267 27.9979 6.37333 27.7987C6.574 27.5891 6.67433 27.3166 6.67433 26.9811V21.761C6.67433 21.4256 6.574 21.1583 6.37333 20.9591C6.17267 20.7495 5.90708 20.6447 5.57657 20.6447C5.24606 20.6447 4.98048 20.7495 4.77981 20.9591C4.59095 21.1583 4.49652 21.4256 4.49652 21.761V26.9811C4.49652 27.3166 4.59095 27.5891 4.77981 27.7987C4.98048 27.9979 5.24606 28.0975 5.57657 28.0975Z" fill="black"/>
<path d="M15.6097 19.0566C15.6097 19.0042 15.6274 18.9623 15.6628 18.9308C15.71 18.8889 15.7631 18.8679 15.8221 18.8679H17.876C17.935 18.8679 17.9823 18.8889 18.0177 18.9308C18.0649 18.9623 18.0885 19.0042 18.0885 19.0566V29.6855C18.0885 29.7379 18.0649 29.7851 18.0177 29.827C17.9823 29.8585 17.935 29.8742 17.876 29.8742H15.5389C15.4208 29.8742 15.3441 29.8218 15.3087 29.717L13.1132 23.6321C13.1014 23.6006 13.0777 23.5901 13.0423 23.6006C13.0187 23.6006 13.0069 23.6164 13.0069 23.6478L13.0246 29.6855C13.0246 29.7379 13.001 29.7851 12.9538 29.827C12.9184 29.8585 12.8712 29.8742 12.8122 29.8742H10.7583C10.6993 29.8742 10.6462 29.8585 10.5989 29.827C10.5635 29.7851 10.5458 29.7379 10.5458 29.6855V19.0566C10.5458 19.0042 10.5635 18.9623 10.5989 18.9308C10.6462 18.8889 10.6993 18.8679 10.7583 18.8679H13.0777C13.1958 18.8679 13.2725 18.9203 13.3079 19.0252L15.5211 25.1101C15.533 25.1415 15.5507 25.1572 15.5743 25.1572C15.6097 25.1467 15.6274 25.1258 15.6274 25.0943L15.6097 19.0566Z" fill="black"/>
<path d="M26.1388 20.5818C26.1388 20.6342 26.1152 20.6813 26.068 20.7233C26.0326 20.7547 25.9854 20.7704 25.9264 20.7704H22.2258C22.1668 20.7704 22.1373 20.7966 22.1373 20.8491V23.3333C22.1373 23.3857 22.1668 23.4119 22.2258 23.4119H24.3505C24.4096 23.4119 24.4568 23.4329 24.4922 23.4748C24.5394 23.5063 24.563 23.5482 24.563 23.6006V25.1258C24.563 25.1782 24.5394 25.2254 24.4922 25.2673C24.4568 25.2987 24.4096 25.3145 24.3505 25.3145H22.2258C22.1668 25.3145 22.1373 25.3407 22.1373 25.3931V27.8931C22.1373 27.9455 22.1668 27.9717 22.2258 27.9717H25.9264C25.9854 27.9717 26.0326 27.9927 26.068 28.0346C26.1152 28.066 26.1388 28.108 26.1388 28.1604V29.6855C26.1388 29.7379 26.1152 29.7851 26.068 29.827C26.0326 29.8585 25.9854 29.8742 25.9264 29.8742H19.8533C19.7942 29.8742 19.7411 29.8585 19.6939 29.827C19.6585 29.7851 19.6408 29.7379 19.6408 29.6855V19.0566C19.6408 19.0042 19.6585 18.9623 19.6939 18.9308C19.7411 18.8889 19.7942 18.8679 19.8533 18.8679H25.9264C25.9854 18.8679 26.0326 18.8889 26.068 18.9308C26.1152 18.9623 26.1388 19.0042 26.1388 19.0566V20.5818Z" fill="black"/>
<path d="M37.8188 18.8679C37.8779 18.8679 37.9251 18.8889 37.9605 18.9308C38.0077 18.9623 38.0313 19.0042 38.0313 19.0566V20.5818C38.0313 20.6342 38.0077 20.6813 37.9605 20.7233C37.9251 20.7547 37.8779 20.7704 37.8188 20.7704H35.6056C35.5466 20.7704 35.5171 20.7966 35.5171 20.8491V29.6855C35.5171 29.7379 35.4935 29.7851 35.4463 29.827C35.4109 29.8585 35.3636 29.8742 35.3046 29.8742H33.233C33.174 29.8742 33.1209 29.8585 33.0737 29.827C33.0383 29.7851 33.0206 29.7379 33.0206 29.6855V20.8491C33.0206 20.7966 32.9911 20.7704 32.932 20.7704H30.8073C30.7483 20.7704 30.6952 20.7547 30.648 20.7233C30.6126 20.6813 30.5949 20.6342 30.5949 20.5818V19.0566C30.5949 19.0042 30.6126 18.9623 30.648 18.9308C30.6952 18.8889 30.7483 18.8679 30.8073 18.8679H37.8188Z" fill="black"/>
<path d="M43.4685 29.8742C43.3269 29.8742 43.2501 29.8166 43.2383 29.7013L42.9551 28.1918C42.9551 28.1394 42.9196 28.1132 42.8488 28.1132H40.6002C40.5294 28.1132 40.4939 28.1394 40.4939 28.1918L40.2107 29.7013C40.1989 29.8166 40.1221 29.8742 39.9805 29.8742H37.9089C37.7554 29.8742 37.6964 29.8061 37.7318 29.6698L40.3346 19.0409C40.3582 18.9256 40.4349 18.8679 40.5648 18.8679H42.9551C43.0849 18.8679 43.1616 18.9256 43.1852 19.0409L45.7703 29.6698L45.788 29.7327C45.788 29.827 45.7231 29.8742 45.5932 29.8742H43.4685ZM40.8481 26.3208C40.8481 26.3732 40.8717 26.3994 40.9189 26.3994H42.5124C42.5714 26.3994 42.595 26.3732 42.5832 26.3208L41.7511 22.0283C41.7393 21.9969 41.7215 21.9811 41.6979 21.9811C41.6743 21.9811 41.6566 21.9969 41.6448 22.0283L40.8481 26.3208Z" fill="black"/>
<path d="M47.0172 29.8742C46.9581 29.8742 46.905 29.8585 46.8578 29.827C46.8224 29.7851 46.8047 29.7379 46.8047 29.6855V19.0566C46.8047 19.0042 46.8224 18.9623 46.8578 18.9308C46.905 18.8889 46.9581 18.8679 47.0172 18.8679H49.0887C49.1478 18.8679 49.195 18.8889 49.2304 18.9308C49.2776 18.9623 49.3012 19.0042 49.3012 19.0566V23.0189C49.3012 23.0608 49.313 23.087 49.3366 23.0975C49.372 23.0975 49.3956 23.0765 49.4074 23.0346L51.6915 19.0094C51.7505 18.9151 51.8331 18.8679 51.9394 18.8679H54.1349C54.2175 18.8679 54.2706 18.8889 54.2942 18.9308C54.3297 18.9623 54.3297 19.0147 54.2942 19.088L51.6738 23.6164C51.662 23.6583 51.6561 23.6897 51.6561 23.7107L54.4359 29.6541C54.4477 29.6751 54.4536 29.7065 54.4536 29.7484C54.4536 29.8323 54.3946 29.8742 54.2765 29.8742H52.0633C51.9335 29.8742 51.8508 29.827 51.8154 29.7327L49.974 25.6132C49.9622 25.5818 49.9445 25.5713 49.9209 25.5818C49.8973 25.5818 49.8737 25.5922 49.8501 25.6132L49.3366 26.4308C49.313 26.4727 49.3012 26.5042 49.3012 26.5252V29.6855C49.3012 29.7379 49.2776 29.7851 49.2304 29.827C49.195 29.8585 49.1478 29.8742 49.0887 29.8742H47.0172Z" fill="black"/>
<path d="M62 20.5818C62 20.6342 61.9764 20.6813 61.9292 20.7233C61.8938 20.7547 61.8466 20.7704 61.7875 20.7704H58.087C58.028 20.7704 57.9985 20.7966 57.9985 20.8491V23.3333C57.9985 23.3857 58.028 23.4119 58.087 23.4119H60.2117C60.2707 23.4119 60.3179 23.4329 60.3534 23.4748C60.4006 23.5063 60.4242 23.5482 60.4242 23.6006V25.1258C60.4242 25.1782 60.4006 25.2254 60.3534 25.2673C60.3179 25.2987 60.2707 25.3145 60.2117 25.3145H58.087C58.028 25.3145 57.9985 25.3407 57.9985 25.3931V27.8931C57.9985 27.9455 58.028 27.9717 58.087 27.9717H61.7875C61.8466 27.9717 61.8938 27.9927 61.9292 28.0346C61.9764 28.066 62 28.108 62 28.1604V29.6855C62 29.7379 61.9764 29.7851 61.9292 29.827C61.8938 29.8585 61.8466 29.8742 61.7875 29.8742H55.7144C55.6554 29.8742 55.6023 29.8585 55.5551 29.827C55.5197 29.7851 55.502 29.7379 55.502 29.6855V19.0566C55.502 19.0042 55.5197 18.9623 55.5551 18.9308C55.6023 18.8889 55.6554 18.8679 55.7144 18.8679H61.7875C61.8466 18.8679 61.8938 18.8889 61.9292 18.9308C61.9764 18.9623 62 19.0042 62 19.0566V20.5818Z" fill="black"/>
</svg>
