<svg width="848" height="821" viewBox="0 0 848 821" fill="none" xmlns="http://www.w3.org/2000/svg">
<g opacity="0.2" filter="url(#filter0_d_5_19)">
<path d="M74.7 215.4C61.9 215.4 50.6 212.9 40.8 207.9C31.2 202.9 23.7 195.9 18.3 186.9C12.9 177.7 10.2 167.1 10.2 155.1V131.1C10.2 129.1 11.2 128.1 13.2 128.1H18.9C20.9 128.1 21.9 129.1 21.9 131.1V155.4C21.9 170.2 26.7 182.2 36.3 191.4C46.1 200.4 58.9 204.9 74.7 204.9C90.7 204.9 103.6 200.4 113.4 191.4C123.2 182.2 128.1 170.2 128.1 155.4V5.99996C128.1 3.99996 129.1 2.99996 131.1 2.99996H136.5C138.5 2.99996 139.5 3.99996 139.5 5.99996V155.1C139.5 167.1 136.8 177.7 131.4 186.9C126 195.9 118.4 202.9 108.6 207.9C98.8 212.9 87.5 215.4 74.7 215.4Z" fill="#FB6CA3"/>
<path d="M270.666 215.4C257.266 215.4 245.366 212.7 234.966 207.3C224.766 201.9 216.766 194.3 210.966 184.5C205.366 174.5 202.566 163.1 202.566 150.3V5.99996C202.566 3.99996 203.566 2.99996 205.566 2.99996H211.266C213.266 2.99996 214.266 3.99996 214.266 5.99996V151.2C214.266 167.2 219.366 180.2 229.566 190.2C239.966 200 253.666 204.9 270.666 204.9C287.666 204.9 301.366 200 311.766 190.2C322.166 180.2 327.366 167.2 327.366 151.2V5.99996C327.366 3.99996 328.366 2.99996 330.366 2.99996H336.066C338.066 2.99996 339.066 3.99996 339.066 5.99996V150.3C339.066 163.1 336.166 174.5 330.366 184.5C324.766 194.3 316.766 201.9 306.366 207.3C296.166 212.7 284.266 215.4 270.666 215.4Z" fill="#FB6CA3"/>
<path d="M457.341 215.4C435.541 215.4 418.341 210.6 405.741 201C393.341 191.4 387.141 178.5 387.141 162.3V151.8C387.141 149.8 388.141 148.8 390.141 148.8H395.241C397.241 148.8 398.241 149.8 398.241 151.8V161.4C398.241 174.4 403.541 184.9 414.141 192.9C424.941 200.9 439.641 204.9 458.241 204.9C475.841 204.9 489.341 201.2 498.741 193.8C508.141 186.4 512.841 176.3 512.841 163.5C512.841 155.5 510.841 148.6 506.841 142.8C502.841 137 496.641 131.6 488.241 126.6C479.841 121.4 467.941 115.5 452.541 108.9C436.941 102.3 425.141 96.8 417.141 92.4C409.341 88 403.141 82.5 398.541 75.9C393.941 69.3 391.641 60.9 391.641 50.7C391.641 34.5 397.041 22.1 407.841 13.5C418.841 4.89997 434.241 0.599976 454.041 0.599976C475.641 0.599976 492.441 5.49997 504.441 15.3C516.441 24.9 522.441 37.9 522.441 54.3V61.5C522.441 63.5 521.441 64.5 519.441 64.5H513.741C511.741 64.5 510.741 63.5 510.741 61.5V55.2C510.741 41.8 505.741 31.1 495.741 23.1C485.741 15.1 471.641 11.1 453.441 11.1C437.241 11.1 424.741 14.5 415.941 21.3C407.341 27.9 403.041 37.5 403.041 50.1C403.041 58.5 404.941 65.3 408.741 70.5C412.741 75.7 418.341 80.3 425.541 84.3C432.941 88.1 444.241 93.1 459.441 99.3C474.441 105.5 486.541 111.5 495.741 117.3C504.941 122.9 512.041 129.4 517.041 136.8C522.041 144 524.541 152.6 524.541 162.6C524.541 178.6 518.641 191.4 506.841 201C495.241 210.6 478.741 215.4 457.341 215.4Z" fill="#FB6CA3"/>
<path d="M685.261 2.99996C687.261 2.99996 688.261 3.99996 688.261 5.99996V10.5C688.261 12.5 687.261 13.5 685.261 13.5H624.961C624.161 13.5 623.761 13.9 623.761 14.7V210C623.761 212 622.761 213 620.761 213H615.061C613.061 213 612.061 212 612.061 210V14.7C612.061 13.9 611.661 13.5 610.861 13.5H552.961C550.961 13.5 549.961 12.5 549.961 10.5V5.99996C549.961 3.99996 550.961 2.99996 552.961 2.99996H685.261Z" fill="#FB6CA3"/>
<path d="M35.7 513C33.7 513 32.7 512 32.7 510V306C32.7 304 33.7 303 35.7 303H104.4C122.8 303 137.4 308 148.2 318C159 327.8 164.4 341.3 164.4 358.5V457.5C164.4 474.7 159 488.3 148.2 498.3C137.4 508.1 122.8 513 104.4 513H35.7ZM44.4 501.3C44.4 502.1 44.8 502.5 45.6 502.5H105C119.8 502.5 131.4 498.4 139.8 490.2C148.4 482 152.7 470.9 152.7 456.9V359.4C152.7 345.2 148.4 334 139.8 325.8C131.4 317.6 119.8 313.5 105 313.5H45.6C44.8 313.5 44.4 313.9 44.4 314.7V501.3Z" fill="#FB6CA3"/>
<path d="M277.57 515.4C264.17 515.4 252.27 512.6 241.87 507C231.67 501.4 223.77 493.6 218.17 483.6C212.57 473.4 209.77 461.7 209.77 448.5V367.8C209.77 354.6 212.57 342.9 218.17 332.7C223.77 322.5 231.67 314.6 241.87 309C252.27 303.4 264.17 300.6 277.57 300.6C291.17 300.6 303.07 303.4 313.27 309C323.67 314.6 331.67 322.5 337.27 332.7C343.07 342.9 345.97 354.6 345.97 367.8V448.5C345.97 461.7 343.07 473.4 337.27 483.6C331.67 493.6 323.67 501.4 313.27 507C303.07 512.6 291.17 515.4 277.57 515.4ZM277.57 504.9C294.57 504.9 308.27 499.8 318.67 489.6C329.07 479.4 334.27 465.9 334.27 449.1V367.5C334.27 350.5 329.07 336.9 318.67 326.7C308.27 316.3 294.57 311.1 277.57 311.1C260.77 311.1 247.17 316.3 236.77 326.7C226.57 336.9 221.47 350.5 221.47 367.5V449.1C221.47 465.9 226.57 479.4 236.77 489.6C247.17 499.8 260.77 504.9 277.57 504.9Z" fill="#FB6CA3"/>
<path d="M35.7 813C33.7 813 32.7 812 32.7 810V606C32.7 604 33.7 603 35.7 603H41.4C43.4 603 44.4 604 44.4 606V810C44.4 812 43.4 813 41.4 813H35.7Z" fill="#FB6CA3"/>
<path d="M227.351 603C229.351 603 230.351 604 230.351 606V610.5C230.351 612.5 229.351 613.5 227.351 613.5H167.051C166.251 613.5 165.851 613.9 165.851 614.7V810C165.851 812 164.851 813 162.851 813H157.151C155.151 813 154.151 812 154.151 810V614.7C154.151 613.9 153.751 613.5 152.951 613.5H95.0508C93.0508 613.5 92.0508 612.5 92.0508 610.5V606C92.0508 604 93.0508 603 95.0508 603H227.351Z" fill="#FB6CA3"/>
</g>
<defs>
<filter id="filter0_d_5_19" x="6.2" y="0.599976" width="686.061" height="820.4" filterUnits="userSpaceOnUse" color-interpolation-filters="sRGB">
<feFlood flood-opacity="0" result="BackgroundImageFix"/>
<feColorMatrix in="SourceAlpha" type="matrix" values="0 0 0 0 0 0 0 0 0 0 0 0 0 0 0 0 0 0 127 0" result="hardAlpha"/>
<feOffset dy="4"/>
<feGaussianBlur stdDeviation="2"/>
<feComposite in2="hardAlpha" operator="out"/>
<feColorMatrix type="matrix" values="0 0 0 0 0 0 0 0 0 0 0 0 0 0 0 0 0 0 0.25 0"/>
<feBlend mode="normal" in2="BackgroundImageFix" result="effect1_dropShadow_5_19"/>
<feBlend mode="normal" in="SourceGraphic" in2="effect1_dropShadow_5_19" result="shape"/>
</filter>
</defs>
</svg>
