<svg width="48" height="21" viewBox="0 0 48 21" fill="none" xmlns="http://www.w3.org/2000/svg">
<g filter="url(#filter0_d_8_47)">
<path d="M11.5859 3.42044C11.5253 2.88256 11.2753 2.46589 10.8359 2.17044C10.3965 1.8712 9.84351 1.72157 9.17684 1.72157C8.69957 1.72157 8.28669 1.79733 7.9382 1.94885C7.58972 2.09657 7.31889 2.30112 7.1257 2.56248C6.93631 2.82006 6.84161 3.11362 6.84161 3.44317C6.84161 3.71968 6.90601 3.95832 7.0348 4.15907C7.16737 4.35983 7.33972 4.52839 7.55184 4.66476C7.76775 4.79733 7.99881 4.90907 8.24502 4.99998C8.49124 5.0871 8.72798 5.15907 8.95525 5.21589L10.0916 5.51135C10.4628 5.60226 10.8435 5.72536 11.2337 5.88067C11.6238 6.03597 11.9856 6.24051 12.3189 6.4943C12.6522 6.74809 12.9212 7.06248 13.1257 7.43748C13.334 7.81248 13.4382 8.26135 13.4382 8.78407C13.4382 9.44317 13.2677 10.0284 12.9268 10.5398C12.5897 11.0511 12.0992 11.4545 11.4552 11.75C10.8151 12.0454 10.0405 12.1932 9.13139 12.1932C8.26017 12.1932 7.50639 12.0549 6.87002 11.7784C6.23366 11.5019 5.73555 11.1098 5.3757 10.6023C5.01586 10.0909 4.81699 9.48483 4.77911 8.78407H6.54048C6.57457 9.20453 6.71093 9.55491 6.94957 9.83521C7.19199 10.1117 7.5007 10.3182 7.8757 10.4545C8.25449 10.5871 8.66927 10.6534 9.12002 10.6534C9.61624 10.6534 10.0575 10.5757 10.4439 10.4204C10.834 10.2613 11.1409 10.0417 11.3643 9.76135C11.5878 9.47726 11.6996 9.14582 11.6996 8.76703C11.6996 8.42233 11.6011 8.14013 11.4041 7.92044C11.2109 7.70074 10.9477 7.51892 10.6143 7.37498C10.2848 7.23104 9.91169 7.10415 9.49502 6.9943L8.12002 6.6193C7.18821 6.36551 6.44957 5.99241 5.90411 5.49998C5.36245 5.00756 5.09161 4.35604 5.09161 3.54544C5.09161 2.87498 5.27343 2.28976 5.63707 1.78976C6.0007 1.28976 6.49313 0.901498 7.11434 0.624984C7.73555 0.34468 8.43631 0.204529 9.21661 0.204529C10.0045 0.204529 10.6996 0.342786 11.3018 0.619302C11.9079 0.895817 12.3852 1.2765 12.7337 1.76135C13.0821 2.24241 13.264 2.79544 13.2791 3.42044H11.5859Z" fill="black"/>
<path d="M16.4254 12H14.5618L18.7493 0.36362H20.7777L24.9652 12H23.1016L19.8118 2.47726H19.7209L16.4254 12ZM16.7379 7.44317H22.7834V8.92044H16.7379V7.44317Z" fill="black"/>
<path d="M26.6456 12V0.36362H28.4013V10.4886H33.674V12H26.6456Z" fill="black"/>
<path d="M35.6768 12V0.36362H42.9723V1.87498H37.4325V5.42044H42.5916V6.92612H37.4325V10.4886H43.0405V12H35.6768Z" fill="black"/>
</g>
<defs>
<filter id="filter0_d_8_47" x="0.779114" y="0.204529" width="46.2614" height="19.9886" filterUnits="userSpaceOnUse" color-interpolation-filters="sRGB">
<feFlood flood-opacity="0" result="BackgroundImageFix"/>
<feColorMatrix in="SourceAlpha" type="matrix" values="0 0 0 0 0 0 0 0 0 0 0 0 0 0 0 0 0 0 127 0" result="hardAlpha"/>
<feOffset dy="4"/>
<feGaussianBlur stdDeviation="2"/>
<feComposite in2="hardAlpha" operator="out"/>
<feColorMatrix type="matrix" values="0 0 0 0 0 0 0 0 0 0 0 0 0 0 0 0 0 0 0.25 0"/>
<feBlend mode="normal" in2="BackgroundImageFix" result="effect1_dropShadow_8_47"/>
<feBlend mode="normal" in="SourceGraphic" in2="effect1_dropShadow_8_47" result="shape"/>
</filter>
</defs>
</svg>
