<svg width="126" height="133" viewBox="0 0 126 133" fill="none" xmlns="http://www.w3.org/2000/svg">
<path d="M126 43.225L33.8208 84.6545C26.1768 88.0681 19.7561 89.7805 14.5638 89.7805C8.6838 89.7805 4.41556 87.6082 1.76955 83.258C0.105304 80.465 -0.382946 76.9238 0.299554 72.6291C0.982054 68.3343 2.79855 63.7624 5.73855 58.8968C8.19031 54.9622 12.2066 49.7918 17.7978 43.3801C15.9013 46.5315 14.5106 49.9917 13.6818 53.6211C12.2118 60.2434 13.5348 65.1035 17.6508 68.2068C19.6091 69.6532 22.3023 70.3791 25.7358 70.3791C28.4763 70.3791 31.5633 69.9136 34.9968 68.9826L126 43.225Z" fill="black"/>
</svg>
