<svg width="60" height="21" viewBox="0 0 60 21" fill="none" xmlns="http://www.w3.org/2000/svg">
<g filter="url(#filter0_d_8_46)">
<path d="M10.8828 3.42044C10.8222 2.88256 10.5722 2.46589 10.1328 2.17044C9.69341 1.8712 9.14038 1.72157 8.47372 1.72157C7.99644 1.72157 7.58356 1.79733 7.23508 1.94885C6.88659 2.09657 6.61576 2.30112 6.42258 2.56248C6.23319 2.82006 6.13849 3.11362 6.13849 3.44317C6.13849 3.71968 6.20288 3.95832 6.33167 4.15907C6.46425 4.35983 6.6366 4.52839 6.84872 4.66476C7.06463 4.79733 7.29569 4.90907 7.5419 4.99998C7.78811 5.0871 8.02485 5.15907 8.25212 5.21589L9.38849 5.51135C9.7597 5.60226 10.1404 5.72536 10.5305 5.88067C10.9207 6.03597 11.2824 6.24051 11.6158 6.4943C11.9491 6.74809 12.218 7.06248 12.4226 7.43748C12.6309 7.81248 12.7351 8.26135 12.7351 8.78407C12.7351 9.44317 12.5646 10.0284 12.2237 10.5398C11.8866 11.0511 11.3961 11.4545 10.7521 11.75C10.112 12.0454 9.33735 12.1932 8.42826 12.1932C7.55705 12.1932 6.80326 12.0549 6.1669 11.7784C5.53053 11.5019 5.03243 11.1098 4.67258 10.6023C4.31273 10.0909 4.11387 9.48483 4.07599 8.78407H5.83735C5.87144 9.20453 6.00781 9.55491 6.24644 9.83521C6.48887 10.1117 6.79758 10.3182 7.17258 10.4545C7.55137 10.5871 7.96614 10.6534 8.4169 10.6534C8.91311 10.6534 9.3544 10.5757 9.74076 10.4204C10.1309 10.2613 10.4377 10.0417 10.6612 9.76135C10.8847 9.47726 10.9964 9.14582 10.9964 8.76703C10.9964 8.42233 10.898 8.14013 10.701 7.92044C10.5078 7.70074 10.2446 7.51892 9.91122 7.37498C9.58167 7.23104 9.20857 7.10415 8.7919 6.9943L7.4169 6.6193C6.48508 6.36551 5.74644 5.99241 5.20099 5.49998C4.65932 5.00756 4.38849 4.35604 4.38849 3.54544C4.38849 2.87498 4.57031 2.28976 4.93394 1.78976C5.29758 1.28976 5.79 0.901498 6.41122 0.624984C7.03243 0.34468 7.73319 0.204529 8.51349 0.204529C9.30137 0.204529 9.99644 0.342786 10.5987 0.619302C11.2048 0.895817 11.682 1.2765 12.0305 1.76135C12.379 2.24241 12.5608 2.79544 12.576 3.42044H10.8828Z" fill="black"/>
<path d="M24.2251 0.36362V12H22.6115L16.6967 3.46589H16.5888V12H14.8331V0.36362H16.4581L22.3785 8.90907H22.4865V0.36362H24.2251Z" fill="black"/>
<path d="M26.7862 12V0.36362H28.5419V5.92044H28.6839L33.5646 0.36362H35.7749L31.0817 5.60226L35.7919 12H33.6783L29.9169 6.80112L28.5419 8.38067V12H26.7862Z" fill="black"/>
<path d="M37.4112 12V0.36362H41.5589C42.4605 0.36362 43.2086 0.518923 43.8033 0.829529C44.4017 1.14013 44.8487 1.57006 45.1442 2.1193C45.4396 2.66476 45.5873 3.29544 45.5873 4.01135C45.5873 4.72347 45.4377 5.35036 45.1385 5.89203C44.843 6.42991 44.3961 6.84847 43.7976 7.14771C43.2029 7.44695 42.4548 7.59657 41.5533 7.59657H38.4112V6.08521H41.3942C41.9624 6.08521 42.4245 6.00377 42.7805 5.84089C43.1404 5.67801 43.4036 5.44127 43.5703 5.13067C43.737 4.82006 43.8203 4.44695 43.8203 4.01135C43.8203 3.57195 43.7351 3.19127 43.5646 2.8693C43.398 2.54733 43.1347 2.30112 42.7748 2.13067C42.4188 1.95642 41.951 1.8693 41.3714 1.8693H39.1669V12H37.4112ZM43.1555 6.74998L46.0305 12H44.0305L41.2123 6.74998H43.1555Z" fill="black"/>
<path d="M54.0703 3.42044C54.0097 2.88256 53.7597 2.46589 53.3203 2.17044C52.8809 1.8712 52.3279 1.72157 51.6612 1.72157C51.1839 1.72157 50.7711 1.79733 50.4226 1.94885C50.0741 2.09657 49.8033 2.30112 49.6101 2.56248C49.4207 2.82006 49.326 3.11362 49.326 3.44317C49.326 3.71968 49.3904 3.95832 49.5192 4.15907C49.6517 4.35983 49.8241 4.52839 50.0362 4.66476C50.2521 4.79733 50.4832 4.90907 50.7294 4.99998C50.9756 5.0871 51.2124 5.15907 51.4396 5.21589L52.576 5.51135C52.9472 5.60226 53.3279 5.72536 53.718 5.88067C54.1082 6.03597 54.4699 6.24051 54.8033 6.4943C55.1366 6.74809 55.4055 7.06248 55.6101 7.43748C55.8184 7.81248 55.9226 8.26135 55.9226 8.78407C55.9226 9.44317 55.7521 10.0284 55.4112 10.5398C55.0741 11.0511 54.5836 11.4545 53.9396 11.75C53.2995 12.0454 52.5249 12.1932 51.6158 12.1932C50.7445 12.1932 49.9908 12.0549 49.3544 11.7784C48.718 11.5019 48.2199 11.1098 47.8601 10.6023C47.5002 10.0909 47.3014 9.48483 47.2635 8.78407H49.0248C49.0589 9.20453 49.1953 9.55491 49.4339 9.83521C49.6764 10.1117 49.9851 10.3182 50.3601 10.4545C50.7389 10.5871 51.1536 10.6534 51.6044 10.6534C52.1006 10.6534 52.5419 10.5757 52.9283 10.4204C53.3184 10.2613 53.6252 10.0417 53.8487 9.76135C54.0722 9.47726 54.1839 9.14582 54.1839 8.76703C54.1839 8.42233 54.0855 8.14013 53.8885 7.92044C53.6953 7.70074 53.432 7.51892 53.0987 7.37498C52.7692 7.23104 52.3961 7.10415 51.9794 6.9943L50.6044 6.6193C49.6726 6.36551 48.9339 5.99241 48.3885 5.49998C47.8468 5.00756 47.576 4.35604 47.576 3.54544C47.576 2.87498 47.7578 2.28976 48.1214 1.78976C48.4851 1.28976 48.9775 0.901498 49.5987 0.624984C50.2199 0.34468 50.9207 0.204529 51.701 0.204529C52.4889 0.204529 53.1839 0.342786 53.7862 0.619302C54.3923 0.895817 54.8695 1.2765 55.218 1.76135C55.5665 2.24241 55.7483 2.79544 55.7635 3.42044H54.0703Z" fill="black"/>
</g>
<defs>
<filter id="filter0_d_8_46" x="0.0759888" y="0.204529" width="59.8466" height="19.9886" filterUnits="userSpaceOnUse" color-interpolation-filters="sRGB">
<feFlood flood-opacity="0" result="BackgroundImageFix"/>
<feColorMatrix in="SourceAlpha" type="matrix" values="0 0 0 0 0 0 0 0 0 0 0 0 0 0 0 0 0 0 127 0" result="hardAlpha"/>
<feOffset dy="4"/>
<feGaussianBlur stdDeviation="2"/>
<feComposite in2="hardAlpha" operator="out"/>
<feColorMatrix type="matrix" values="0 0 0 0 0 0 0 0 0 0 0 0 0 0 0 0 0 0 0.25 0"/>
<feBlend mode="normal" in2="BackgroundImageFix" result="effect1_dropShadow_8_46"/>
<feBlend mode="normal" in="SourceGraphic" in2="effect1_dropShadow_8_46" result="shape"/>
</filter>
</defs>
</svg>
