<svg width="71" height="21" viewBox="0 0 71 21" fill="none" xmlns="http://www.w3.org/2000/svg">
<g filter="url(#filter0_d_8_45)">
<path d="M7.90055 12L4.67328 0.36362H6.51987L8.78692 9.37498H8.89487L11.2528 0.36362H13.0824L15.4403 9.38067H15.5483L17.8096 0.36362H19.6619L16.429 12H14.6619L12.2131 3.28407H12.1221L9.67328 12H7.90055Z" fill="black"/>
<path d="M30.7926 6.1818C30.7926 7.42423 30.5653 8.49241 30.1108 9.38635C29.6562 10.2765 29.0331 10.9621 28.2415 11.4432C27.4536 11.9204 26.5578 12.1591 25.554 12.1591C24.5464 12.1591 23.6468 11.9204 22.8551 11.4432C22.0672 10.9621 21.446 10.2746 20.9915 9.38067C20.5369 8.48673 20.3096 7.42044 20.3096 6.1818C20.3096 4.93938 20.5369 3.87309 20.9915 2.98294C21.446 2.089 22.0672 1.40339 22.8551 0.92612C23.6468 0.445059 24.5464 0.204529 25.554 0.204529C26.5578 0.204529 27.4536 0.445059 28.2415 0.92612C29.0331 1.40339 29.6562 2.089 30.1108 2.98294C30.5653 3.87309 30.7926 4.93938 30.7926 6.1818ZM29.054 6.1818C29.054 5.23483 28.9006 4.43748 28.5937 3.78976C28.2907 3.13824 27.874 2.64582 27.3437 2.31248C26.8172 1.97536 26.2206 1.8068 25.554 1.8068C24.8835 1.8068 24.285 1.97536 23.7585 2.31248C23.232 2.64582 22.8153 3.13824 22.5085 3.78976C22.2055 4.43748 22.054 5.23483 22.054 6.1818C22.054 7.12877 22.2055 7.92801 22.5085 8.57953C22.8153 9.22726 23.232 9.71968 23.7585 10.0568C24.285 10.3901 24.8835 10.5568 25.554 10.5568C26.2206 10.5568 26.8172 10.3901 27.3437 10.0568C27.874 9.71968 28.2907 9.22726 28.5937 8.57953C28.9006 7.92801 29.054 7.12877 29.054 6.1818Z" fill="black"/>
<path d="M32.9815 0.36362H35.1122L38.8167 9.40907H38.9531L42.6577 0.36362H44.7883V12H43.1179V3.57953H43.0099L39.5781 11.9829H38.1917L34.7599 3.57385H34.652V12H32.9815V0.36362Z" fill="black"/>
<path d="M47.3409 12V0.36362H54.6363V1.87498H49.0966V5.42044H54.2557V6.92612H49.0966V10.4886H54.7045V12H47.3409Z" fill="black"/>
<path d="M66.3736 0.36362V12H64.7599L58.8452 3.46589H58.7372V12H56.9815V0.36362H58.6065L64.527 8.90907H64.6349V0.36362H66.3736Z" fill="black"/>
</g>
<defs>
<filter id="filter0_d_8_45" x="0.673279" y="0.204529" width="69.7003" height="19.9545" filterUnits="userSpaceOnUse" color-interpolation-filters="sRGB">
<feFlood flood-opacity="0" result="BackgroundImageFix"/>
<feColorMatrix in="SourceAlpha" type="matrix" values="0 0 0 0 0 0 0 0 0 0 0 0 0 0 0 0 0 0 127 0" result="hardAlpha"/>
<feOffset dy="4"/>
<feGaussianBlur stdDeviation="2"/>
<feComposite in2="hardAlpha" operator="out"/>
<feColorMatrix type="matrix" values="0 0 0 0 0 0 0 0 0 0 0 0 0 0 0 0 0 0 0.25 0"/>
<feBlend mode="normal" in2="BackgroundImageFix" result="effect1_dropShadow_8_45"/>
<feBlend mode="normal" in="SourceGraphic" in2="effect1_dropShadow_8_45" result="shape"/>
</filter>
</defs>
</svg>
